<svg width="41" height="41" viewBox="0 0 41 41" fill="none" xmlns="http://www.w3.org/2000/svg">
<g clip-path="url(#clip0_0_156)">
<path d="M35.0281 0.216797H6.66836C3.4285 0.216797 0.792725 2.84528 0.792725 6.07617V34.3574C0.792725 37.5883 3.4285 40.2168 6.66836 40.2168H35.0281C38.268 40.2168 40.9038 37.5883 40.9038 34.3574V6.07617C40.9038 2.84528 38.268 0.216797 35.0281 0.216797ZM38.5535 34.3574C38.5535 36.2959 36.972 37.873 35.0281 37.873H6.66836C4.72451 37.873 3.14298 36.2959 3.14298 34.3574V6.07617C3.14298 4.1377 4.72451 2.56055 6.66836 2.56055H35.0281C36.972 2.56055 38.5535 4.1377 38.5535 6.07617V34.3574Z" fill="#070707" stroke="#070707" stroke-width="0.5"/>
<path d="M19.6732 16.7012C19.6732 14.1163 17.5647 12.0137 14.9726 12.0137H7.92188V28.4199H14.9726C17.5647 28.4199 19.6732 26.3173 19.6732 23.7324C19.6732 22.3335 19.0547 21.0765 18.0766 20.2168C19.0547 19.3571 19.6732 18.1001 19.6732 16.7012ZM17.3229 23.7324C17.3229 25.0248 16.2687 26.0762 14.9726 26.0762H10.2721V21.3887H14.9726C16.2687 21.3887 17.3229 22.44 17.3229 23.7324ZM10.2721 19.0449V14.3574H14.9726C16.2687 14.3574 17.3229 15.4088 17.3229 16.7012C17.3229 17.9936 16.2687 19.0449 14.9726 19.0449H10.2721Z" fill="#070707" stroke="#070707" stroke-width="0.5"/>
<path d="M27.899 16.7012C24.6591 16.7012 22.0233 19.3297 22.0233 22.5605C22.0233 25.7914 24.6591 28.4199 27.899 28.4199C29.99 28.4199 31.94 27.2978 32.9878 25.4911L30.9534 24.3174C30.3242 25.4023 29.1537 26.0762 27.899 26.0762C26.3667 26.0762 25.06 25.0966 24.5749 23.7324H33.7746V22.5605C33.7746 19.3297 31.1388 16.7012 27.899 16.7012ZM24.5749 21.3887C25.06 20.0245 26.3667 19.0449 27.899 19.0449C29.4312 19.0449 30.7379 20.0245 31.223 21.3887H24.5749Z" fill="#070707" stroke="#070707" stroke-width="0.5"/>
<path d="M23.1985 12.0137H32.5995V14.3574H23.1985V12.0137Z" fill="#070707" stroke="#070707" stroke-width="0.5"/>
</g>
<defs>
<clipPath id="clip0_0_156">
<rect width="40.111" height="40" fill="white" transform="translate(0.792725 0.216797)"/>
</clipPath>
</defs>
</svg>
